<svg xmlns="http://www.w3.org/2000/svg" xmlns:xlink="http://www.w3.org/1999/xlink" version="1.1" width="256" height="256" viewBox="0 0 256 256" xml:space="preserve">
<g style="stroke: none; stroke-width: 0; stroke-dasharray: none; stroke-linecap: butt; stroke-linejoin: miter; stroke-miterlimit: 10; fill: none; fill-rule: nonzero; opacity: 1;" transform="translate(1.4065934065934016 1.4065934065934016) scale(2.81 2.81)">
	<path d="M 48.065 43.62 c 3.638 -1.165 6.256 -4.609 6.166 -8.653 c -0.103 -4.651 -3.971 -8.543 -8.621 -8.672 c -5.018 -0.14 -9.13 3.886 -9.13 8.873 c 0 3.958 2.591 7.307 6.169 8.453 c -5.762 0.659 -10.24 5.546 -10.24 11.485 v 1.684 c 0 0.354 0.287 0.641 0.641 0.641 h 24.613 c 0.354 0 0.641 -0.287 0.641 -0.641 v -1.684 C 58.305 49.166 53.828 44.279 48.065 43.62 z" style="stroke: none; stroke-width: 1; stroke-dasharray: none; stroke-linecap: butt; stroke-linejoin: miter; stroke-miterlimit: 10; fill: rgb(0,171,242); fill-rule: nonzero; opacity: 1;" transform=" matrix(1 0 0 1 0 0) " stroke-linecap="round"/>
	<path d="M 20.223 85.211 c -4.723 0 -8.592 -1.379 -11.329 -4.116 c -2.768 -2.767 -4.188 -6.831 -4.105 -11.751 l 2.85 0.048 c -0.071 4.188 1.03 7.447 3.27 9.687 c 4.012 4.014 11.331 4.37 20.61 1.002 c 9.635 -3.497 20.078 -10.559 29.404 -19.885 c 2.998 -2.998 5.796 -6.152 8.316 -9.371 l 2.243 1.757 c -2.59 3.309 -5.465 6.549 -8.544 9.629 c -9.615 9.615 -20.428 16.913 -30.447 20.549 C 27.983 84.396 23.851 85.211 20.223 85.211 z" style="stroke: none; stroke-width: 1; stroke-dasharray: none; stroke-linecap: butt; stroke-linejoin: miter; stroke-miterlimit: 10; fill: rgb(204,204,204); fill-rule: nonzero; opacity: 1;" transform=" matrix(1 0 0 1 0 0) " stroke-linecap="round"/>
	<path d="M 22.258 37.452 l -2.222 -1.785 c 2.374 -2.954 4.979 -5.853 7.742 -8.616 c 9.615 -9.616 20.428 -16.913 30.447 -20.549 C 68.599 2.736 76.98 3.326 81.821 8.168 c 2.568 2.567 3.946 6.111 4.095 10.534 l -2.848 0.096 c -0.124 -3.677 -1.222 -6.575 -3.262 -8.615 c -4.014 -4.013 -11.332 -4.369 -20.61 -1.002 c -9.635 3.497 -20.077 10.559 -29.404 19.886 C 27.102 31.757 24.567 34.579 22.258 37.452 z" style="stroke: none; stroke-width: 1; stroke-dasharray: none; stroke-linecap: butt; stroke-linejoin: miter; stroke-miterlimit: 10; fill: rgb(204,204,204); fill-rule: nonzero; opacity: 1;" transform=" matrix(1 0 0 1 0 0) " stroke-linecap="round"/>
	<path d="M 73.369 85.019 l -0.379 -2.824 c 2.835 -0.379 5.128 -1.428 6.816 -3.115 c 4.013 -4.013 4.369 -11.332 1.002 -20.61 c -3.497 -9.635 -10.559 -20.077 -19.885 -29.403 c -2.892 -2.891 -5.932 -5.602 -9.038 -8.056 l 1.766 -2.236 c 3.192 2.522 6.317 5.307 9.287 8.276 c 9.615 9.615 16.913 20.427 20.549 30.446 c 3.766 10.377 3.175 18.757 -1.666 23.597 C 79.681 83.235 76.837 84.556 73.369 85.019 z" style="stroke: none; stroke-width: 1; stroke-dasharray: none; stroke-linecap: butt; stroke-linejoin: miter; stroke-miterlimit: 10; fill: rgb(204,204,204); fill-rule: nonzero; opacity: 1;" transform=" matrix(1 0 0 1 0 0) " stroke-linecap="round"/>
	<path d="M 37.063 70.486 c -3.19 -2.519 -6.314 -5.303 -9.285 -8.275 C 7.331 41.764 -0.964 18.025 8.894 8.168 c 2.123 -2.123 4.938 -3.439 8.368 -3.913 l 0.39 2.823 c -2.801 0.387 -5.069 1.432 -6.743 3.105 c -8.437 8.437 0.211 31.34 18.884 50.014 c 2.894 2.894 5.934 5.603 9.037 8.054 L 37.063 70.486 z" style="stroke: none; stroke-width: 1; stroke-dasharray: none; stroke-linecap: butt; stroke-linejoin: miter; stroke-miterlimit: 10; fill: rgb(204,204,204); fill-rule: nonzero; opacity: 1;" transform=" matrix(1 0 0 1 0 0) " stroke-linecap="round"/>
	<path d="M 89.851 30.818 c 0 4.189 -3.396 7.585 -7.585 7.585 c -1.853 0 -3.55 -0.664 -4.868 -1.768 c -1.661 -1.391 -2.717 -3.481 -2.717 -5.817 c 0 -4.189 3.396 -7.585 7.585 -7.585 C 86.455 23.234 89.851 26.629 89.851 30.818 z" style="stroke: none; stroke-width: 1; stroke-dasharray: none; stroke-linecap: butt; stroke-linejoin: miter; stroke-miterlimit: 10; fill: rgb(255,224,47); fill-rule: nonzero; opacity: 1;" transform=" matrix(1 0 0 1 0 0) " stroke-linecap="round"/>
	<rect x="23.04" y="0" rx="0" ry="0" width="13.01" height="13.01" style="stroke: none; stroke-width: 1; stroke-dasharray: none; stroke-linecap: butt; stroke-linejoin: miter; stroke-miterlimit: 10; fill: rgb(255,161,67); fill-rule: nonzero; opacity: 1;" transform=" matrix(1 0 0 1 0 0) "/>
	<polygon points="16.97,62.66 8.56,49.32 0.15,62.66 " style="stroke: none; stroke-width: 1; stroke-dasharray: none; stroke-linecap: butt; stroke-linejoin: miter; stroke-miterlimit: 10; fill: rgb(115,213,120); fill-rule: nonzero; opacity: 1;" transform="  matrix(1 0 0 1 0 0) "/>
	<polygon points="63.96,76.21 56,76.21 54.59,78.66 52.02,83.1 56,90 63.96,90 67.94,83.1 " style="stroke: none; stroke-width: 1; stroke-dasharray: none; stroke-linecap: butt; stroke-linejoin: miter; stroke-miterlimit: 10; fill: rgb(255,92,168); fill-rule: nonzero; opacity: 1;" transform="  matrix(1 0 0 1 0 0) "/>
</g>
</svg>